<svg xmlns="http://www.w3.org/2000/svg" viewBox="0 0 315.88 82.77">
<defs>
<style>.cls-1{fill:#2b2d2d;}.cls-2{fill:none;stroke:#2b2d2d;stroke-miterlimit:10;stroke-width:4px;}.cls-3{fill:#2c2d2d;}
</style>
</defs>
<title>GeekpieLogo</title>
<g>
<path class="cls-1" d="M56.83,65.93H42.45A13.89,13.89,0,0,1,28.11,51.62V30.91a13.7,13.7,0,0,1,4.68-10.69,14.26,14.26,0,0,1,9.67-3.69H56.31v2.81H42.45a11.3,11.3,0,0,0-7.77,3,10.84,10.84,0,0,0-3.76,8.54V51.62a11.24,11.24,0,0,0,11.53,11.6h11.6V40.05H46.78V37.27H56.83Z"/>
<path class="cls-1" d="M93.15,50.46H72.41v3.76q0,5.56,2.07,7.45,1.69,1.55,6.12,1.55h12v2.71h-12q-5.52,0-8-2.21-3-2.71-3-9.49V43.88a11.78,11.78,0,1,1,23.55,0Zm-2.81-2.81V43.88a8.6,8.6,0,0,0-2.64-6.36,8.48,8.48,0,0,0-6.33-2.64A8.6,8.6,0,0,0,75,37.52a8.73,8.73,0,0,0-2.6,6.36v3.76Z"/>
<path class="cls-1" d="M129.43,50.46H108.69v3.76q0,5.56,2.07,7.45,1.69,1.55,6.12,1.55h12v2.71h-12q-5.52,0-8-2.21-3-2.71-3-9.49V43.88a11.78,11.78,0,1,1,23.55,0Zm-2.81-2.81V43.88A8.6,8.6,0,0,0,124,37.52a8.48,8.48,0,0,0-6.33-2.64,8.6,8.6,0,0,0-6.36,2.64,8.73,8.73,0,0,0-2.6,6.36v3.76Z"/>
<path class="cls-1" d="M166,64.8l-2.57,1.05L153.3,45.75,145,49.89V65.47h-2.81V17.06H145V46.8L164.52,37l1.16,2.57-9.88,4.92Z"/>
<path  class="cls-1" d="M207.16,30.91q0,8.09-5.48,11.78a16.64,16.64,0,0,1-9.53,2.57h-10.9V65.47h-2.81V16.53h13.71a16.52,16.52,0,0,1,9.53,2.64Q207.16,22.93,207.16,30.91Zm-2.78,0q0-6.5-4.25-9.39a13.75,13.75,0,0,0-8-2.18h-10.9v23.1h10.9a13.89,13.89,0,0,0,8-2.11Q204.38,37.52,204.38,30.91Z"/>
<path  class="cls-1" d="M222.74,21.38h-2.81V17.06h2.81Zm0,44.09h-2.81V32.6h2.81Z"/>
<path  class="cls-1" d="M259,50.46H238.27v3.76q0,5.56,2.07,7.45,1.69,1.55,6.12,1.55h12v2.71h-12q-5.52,0-8-2.21-3-2.71-3-9.49V43.88a11.78,11.78,0,1,1,23.55,0Zm-2.81-2.81V43.88a8.6,8.6,0,0,0-2.64-6.36,8.48,8.48,0,0,0-6.33-2.64,8.6,8.6,0,0,0-6.36,2.64,8.73,8.73,0,0,0-2.6,6.36v3.76Z"/>
<path id="_路径_" data-name="&lt;路径&gt;" class="cls-2" d="M254.62,80.77H11a9,9,0,0,1-9-9V11a9,9,0,0,1,9-9H280.6C299,2,313.88,18.38,313.88,38.58v42.2h-7.51"/>
<rect id="_路径_2" data-name="&lt;路径&gt;" class="cls-3" x="264.02" y="70.8" width="32.98" height="4.06"/>
</g>
</svg>